<svg width="54" height="55" viewBox="0 0 54 55" fill="none" xmlns="http://www.w3.org/2000/svg">
<g filter="url(#filter0_ddd_5140_26735)">
<ellipse cx="27" cy="26.9989" rx="24" ry="24.0011" fill="white"/>
</g>
<path fill-rule="evenodd" clip-rule="evenodd" d="M41 23.9987V25.5843C41 25.8444 40.9729 25.9387 40.9221 26.0337C40.8713 26.1288 40.7966 26.2034 40.7016 26.2543C40.6065 26.3051 40.5122 26.3322 40.2522 26.3322H13.7478C13.4878 26.3322 13.3935 26.3051 13.2984 26.2543C13.2034 26.2034 13.1288 26.1288 13.0779 26.0337C13.0271 25.9387 13 25.8444 13 25.5843V23.9987C13 22.71 14.0447 21.6653 15.3333 21.6653H38.6667C39.9553 21.6653 41 22.71 41 23.9987ZM22.3333 40.3328H17.1579C16.1178 40.3328 15.7406 40.2245 15.3603 40.0211C14.9801 39.8178 14.6817 39.5193 14.4783 39.1391C14.275 38.7588 14.1667 38.3816 14.1667 37.3415V27.4989H22.3333V40.3328ZM36.8421 40.3328H23.5V27.4989H39.8333V37.3415C39.8333 38.3816 39.725 38.7588 39.5217 39.1391C39.3183 39.5193 39.0199 39.8178 38.6397 40.0211C38.2594 40.2245 37.8822 40.3328 36.8421 40.3328ZM30.6346 20.4986H23.3654C21.0235 20.4986 19.125 18.6703 19.125 16.4151C19.125 14.1598 21.0235 12.3315 23.3654 12.3315C24.9079 12.3315 26.258 13.1247 27 14.3105C27.742 13.1247 29.0921 12.3315 30.6346 12.3315C32.9765 12.3315 34.875 14.1598 34.875 16.4151C34.875 18.6703 32.9765 20.4986 30.6346 20.4986ZM27.875 16.4151V18.7485H30.3542C31.7234 18.7485 32.8333 17.7038 32.8333 16.4151C32.8333 15.1263 31.7234 14.0816 30.3542 14.0816C28.985 14.0816 27.875 15.1263 27.875 16.4151ZM26.125 16.4151C26.125 15.1263 25.015 14.0816 23.6458 14.0816C22.2766 14.0816 21.1667 15.1263 21.1667 16.4151C21.1667 17.7038 22.2766 18.7485 23.6458 18.7485H26.125V16.4151Z" fill="#8E713E"/>
<defs>
<filter id="filter0_ddd_5140_26735" x="0" y="0.997803" width="54" height="54.0022" filterUnits="userSpaceOnUse" color-interpolation-filters="sRGB">
<feFlood flood-opacity="0" result="BackgroundImageFix"/>
<feColorMatrix in="SourceAlpha" type="matrix" values="0 0 0 0 0 0 0 0 0 0 0 0 0 0 0 0 0 0 127 0" result="hardAlpha"/>
<feOffset dy="1"/>
<feGaussianBlur stdDeviation="1.5"/>
<feColorMatrix type="matrix" values="0 0 0 0 0 0 0 0 0 0 0 0 0 0 0 0 0 0 0.1 0"/>
<feBlend mode="normal" in2="BackgroundImageFix" result="effect1_dropShadow_5140_26735"/>
<feColorMatrix in="SourceAlpha" type="matrix" values="0 0 0 0 0 0 0 0 0 0 0 0 0 0 0 0 0 0 127 0" result="hardAlpha"/>
<feOffset dy="2"/>
<feGaussianBlur stdDeviation="1"/>
<feColorMatrix type="matrix" values="0 0 0 0 0 0 0 0 0 0 0 0 0 0 0 0 0 0 0.06 0"/>
<feBlend mode="normal" in2="effect1_dropShadow_5140_26735" result="effect2_dropShadow_5140_26735"/>
<feColorMatrix in="SourceAlpha" type="matrix" values="0 0 0 0 0 0 0 0 0 0 0 0 0 0 0 0 0 0 127 0" result="hardAlpha"/>
<feOffset/>
<feGaussianBlur stdDeviation="1"/>
<feColorMatrix type="matrix" values="0 0 0 0 0 0 0 0 0 0 0 0 0 0 0 0 0 0 0.07 0"/>
<feBlend mode="normal" in2="effect2_dropShadow_5140_26735" result="effect3_dropShadow_5140_26735"/>
<feBlend mode="normal" in="SourceGraphic" in2="effect3_dropShadow_5140_26735" result="shape"/>
</filter>
</defs>
</svg>
